<?xml version="1.0" encoding="UTF-8"?>
<svg id="Capa_1" data-name="Capa 1" xmlns="http://www.w3.org/2000/svg" viewBox="0 0 210.36 180.85">
  <defs>
    <style>
      .cls-1 {
        fill: #ca9e67;
      }
    </style>
  </defs>
  <path class="cls-1" d="M53.43,16.41c1.16-2.58,2.08-3.25,4.19-5.21s4.44-3.71,6.9-5.35c-1.41-.07-3.57,1.12-4.81,1.85-24.59,14.65-34.71,61.36-31.78,87.14.14,1.22.86,7.08,1.63,7.52,6.6-.07,13.44.64,20.01.17,7.25-.52,12.6-4.44,16.08-10.45,3.66-6.32,7.56-24.35,8.9-32.01,1.24-7.1,1.22-14.32-2.58-20.7.67-.94,1.34-1.96,2.11-2.82,4.29-4.81,10.58-8.55,17.3-6.33,8.89,2.94,11.1,16.5,11.79,24.37-4.77,16.62-5.9,36.86-15.47,51.66-7.21,11.16-19.33,18.98-32.94,20.3-.08.56.76.31,1.17.32,11.29.41,20.11-1.7,28.41-9.25.76-.69,2.09-2.79,2.85-3.09.64-.26.54.35.43.74-.96,3.42-7.62,11.73-10.38,14.33-11.19,10.56-22.4,9.93-37,7.57-9.76-1.57-19.13-5.33-25.28-13.25-1.97-2.54-5.3-7.91-6.23-10.87-.14-.45.01-.57.48-.46,2.9.66,6.62,2.25,9.1,3.88.25.05.23-.34.16-.48-1.11-2.38-8.33-5.11-10.73-6.52-2.23-3.77-2.58-8.35-3.71-12.49,3.61.91,7,2.98,10.41,4.71-2.41-4.2-6.14-6.2-10.58-7.97-.22-.8-.37-1.62-.5-2.44-.39-2.5-.94-8.68-.68-11.05.06-.5-.18-.54.44-.43,2.45.45,6.66,2.51,8.48,4.15.51.46.62,1.15,1.15,1.32-1.28-4.35-5.08-7.91-9.59-9.08-.47-4.89.77-9.78,1.19-14.64,2.39.62,5.17,1.53,7.06,3.09.99.81,1.64,2.01,2.68,2.76-.89-4.39-4.49-8.44-9.07-9.42l3.7-13.97c2.18.14,5.08,1.36,6.69,2.79.72.64,1.25,1.85,2.05,2.4-.37-2.8-1.62-5.65-4.25-7.09-1.08-.59-2.3-.52-3.15-1.55,1.98-4.3,3.61-8.78,6.26-12.77,2.48.96,4.99,2.23,7.2,3.86-.01-2.36-1.31-4.48-3.47-5.58-.63-.32-2.42-.43-2.23-1.06,1.05-1.14,1.7-2.9,2.52-4.06,1.26-1.77,2.93-3.26,4.34-4.91.31-.36.47-1.21.54-1.26.21-.15,2.35.48,2.74.65.31.14,2.53,1.48,2.94,1.78.55.41.48,1.06,1.02,1.12-.44-2.56-1.3-4.98-4.37-5.2-.14-.49.14-.54.33-.81C32.66,5.64,46.11.62,54.26.15c12.11-.7,36.37.91,46.66,6.9,3.28,1.91,9.05,8.41,10.16,11.94.36,1.15.18,3.76-.85,4.57-.38-2.04-2.19-4.24-3.57-5.81-2.38-2.72-5.46-5.19-9.06-6.19-17.63-4.88-29.81,15.38-35.77,28.25.92.2.57-.27.83-.64,2.83-4.14,4.81-8.6,8.25-12.5,13.31-15.11,30.15-13.29,37.49,5.68l-3.56,16.57c-.85,1-.67-2.08-.71-2.4-1.22-8.02-4.8-20.89-14.92-21.64-15.53-1.16-25.58,22.41-28.9,34.11-3.13,11-4.18,22.49-3.25,33.9-.31.98-5.45,3.15-6.49,3.15h-19.32c-1.49-17.53.86-35.24,6.72-51.83,2.72-7.7,6.47-15.95,11.09-22.74.88-1.29.98-1.26,2.02-2.11-1.16,2.8-3.52,5.63-5,8.32-6.11,11.1-12.08,28.16-13.38,40.67-.04.36-.4,1.11.23,1.04.84-1.47,2.29-3.7,3.54-4.86,2.16-1.99,5.32-2.77,7.92-4.04.89-3.31,1.36-6.76,2.66-9.94l-2.03.14-6.37,2.29c1.98-3.76,5.78-6.29,9.92-7.31l4.87-11.7c-3.22-.12-5.96,1.72-8.91,2.92-.28-.78,1.18-2.43,1.84-3.09,1.29-1.28,3.45-2.53,5.21-3.09,1.01-.32,3.54-.57,4.04-.96.58-.45,1.01-2.1,1.45-2.82,1.41-2.29,2.93-4.53,4.43-6.76-2.45-.72-5.29.87-7.56,1.14-.65.08-.65-.17-.34-.65.98-1.5,5.03-3.06,6.82-3.48.87-.2,3.75-.32,4.12-.56.26-.17.42-1.05.81-1.49,1.53-1.73,3.65-3.28,5.22-5.02-.68-.31-1.73-.2-2.48-.12-4.7.47-11.24,3.47-14.66,6.46ZM53.1,5.37c-2.25.62-5,2.21-6.84,3.62-12.75,9.77-21.42,29.05-25.32,44.07-5.91,22.75-7,59.01,12.99,75.64.26.22.76,1.74,1.02.3-9.86-10.25-13.79-26.55-14.46-40.28-1.24-25.16,8.41-62.25,28.08-79.78,1.42-1.27,3.4-2.05,4.53-3.57ZM32.6,19.66l6.12-7.57c.74-1.3,1.1-2.64.93-4.13-1.35,1.07-7.78,5.14-8.25,6.17-.12.26,1.96,4.46,1.2,5.52ZM16.13,62.87c-.02-.68-.04-1.35.09-2.02,2.75-14.28,8.02-28.15,15.98-40.44.09-.54-2.33-3.18-2.87-3.32-.73-.19-2.55,2.06-3.12,2.73-.61.72-4.29,5.79-4.33,6.22-.04.39,1.23,1.65,1.54,2.31.83,1.7,1.28,3.72,1.09,5.6-1.71-1.34-2.89-3.73-5.35-3.88-1.32,3.39-3.59,6.84-4.63,10.31-.72,2.4-.09,1.36.91,2.59.58.72,1.48,1.86,1.84,2.67.34.75,1.26,4.43,1.18,5.03-.21,1.48-1.91-1.51-2.18-1.79-.49-.51-3.45-3.23-3.87-2.92-.21,1.94-3.12,9.1-2.66,10.51.11.34,3.08,1.98,3.67,2.65.54.6,1.48,2.47,1.98,3.28.18.3-.17.64.7.47ZM68.22,17.39h-5.54c-1.07,0-5.08,1.32-6.12,1.88-.16.09-1.07.5-.6.72,3.27-.73,6.68-.94,10.01-.38.78-.73,1.93-1.17,2.25-2.23ZM47.38,34.28c.33-.39,6.61-1.27,7.56-1.3.82-.02,1.68.59,2.63.28.67-.22,1.52-2.23,1.91-2.87-4-.3-8.74.7-11.85,3.25-.3.25-.21.62-.24.65-.05.05-1.38-.04-.67.65s.63-.6.67-.65ZM78.64,46.3c-2.83,11.51-4.99,23.22-7.96,34.71-2.51,9.72-7.91,22.48-20.44,22.48h-20.33c.08,1.45,1.43,2.92,2.36,4.05,6.96,8.41,17.68,8.71,27.63,5.29,12.5-4.29,19.02-15.4,22.27-27.2s5.4-23.69,7.88-35.43c.01-.05.48-.42.59-.88.28-1.22.49-2.45.76-3.67-3.24-.82-6.56-1.9-9.72-3.12-.56-.22-.97-1.15-2.04-.78-.1,1.56-.64,3.05-1.01,4.55ZM52.76,45.98c-4.72-.17-9.04,1.81-12.1,5.19,2.29-.17,4.28-1.33,6.59-1.58,3.74-.41,5,1.3,5.5-3.61ZM48.39,62.88c-5.37.63-9.67,2.55-12.43,7.14,2.29-.61,3.99-1.81,6.39-2.43.98-.25,5.16-.8,5.4-.96.44-.3.46-3.03.65-3.76ZM46.37,80.75c-5.2.69-9.74,3.07-11.42,8.12,2.21-1.81,4.47-2.64,7.13-3.6.22-.08.23-.5.52-.6.64-.21,3.47-.33,3.73-.72.29-.43-.11-2.5.04-3.2Z"/>
  <path class="cls-1" d="M52.09,18.04c-.11.23-.05.49-.32.83-.19.25-.5.31-.69.47.08-.2-.1-.63.16-.98s.74-.24.85-.31Z"/>
  <path class="cls-1" d="M53.43,16.41c-.12.26-.12.51-.32.82-.25.38-.67.55-1.02.81.11-.22-.09-.69.31-1.17.33-.39.94-.37,1.04-.46Z"/>
  <path class="cls-1" d="M160.8,65.48c5.83-.54,10.89-3.24,13.67-8.23,4.44-8,4.21-19.25-7.28-20.36-7.21-.7-16.42.05-23.87.01-5.52-.03-11.21-.29-16.77-.35-4.12-.04-8.16.62-12.28.01l5.76-24.33,56.26-.06c21.43,1.57,33.44,14.53,31.07,35.59-2.04,18.07-12.59,34.91-31.26,40.28-10.47,3.02-22.87,2.37-33.75,2.46-4.2.03-8.41-.07-12.6,0l-8.42,37.35h-28.56l19.83-84.48h28.56l-5.04,22.09h24.7ZM162.14,66.78h-27.39l5.04-22.09h-26.55l-19.15,82.2h12.95s11.63-49.34,11.63-49.34c14.69-.31,29.45.43,44.1-.41,13.64-1.65,23.68-8.76,27.6-21.73,1.11-3.69,1.88-5.07-.37-8.41-3.32-4.93-10.82-9.13-16.93-9.46.15.58,1.07.64,1.56,1.08,7.91,7.19,2.21,22.18-7.05,26.27-.75.33-4.77,1.82-5.44,1.89Z"/>
  <path class="cls-1" d="M115.27,180.17l5.92-27.64c5.99.39,12.52-.46,18.44.02,7.39.6,10.32,5.14,7.73,12.01-1.14,3.02-3.59,5.23-6.88,5.86l5.04,9.74h-9.41c-.61-1.17-3.53-8.32-4.03-8.61-.41-.24-6.4-.29-6.68-.12l-1.73,8.73h-8.4ZM126.69,165.23h9.91c2.78,0,5.09-5.72,1.01-6.18-3.02-.34-6.63.28-9.72-.01l-1.2,6.19Z"/>
  <path class="cls-1" d="M180.12,152.55c.27.26-.83,6.03-1.33,6.35l-17.26.14c-.57.13-.87,3.54-.9,4.24h16.13c-.34,1.07-.61,5.57-1.33,6.03l-15.94-.21c-.39.1-1,3.92-.88,4.57h18.15l-1.34,6.5h-26.55l5.71-27.62h25.54Z"/>
  <path class="cls-1" d="M210.36,153.86l-2.38,6.14c-2.19-.31-4.35-.98-6.56-1.23-2.61-.3-7.54-.65-9.88.44-.64.3-1.15.64-1.28,1.38-.46,2.77,5.84,2.15,7.5,2.37,2.5.32,7.75,1,9.44,2.9,2.6,2.92,1.4,8.97-1.45,11.4-4.97,4.23-14.8,4.05-21.03,2.86-1.92-.36-3.44-1.49-5.59-1.58-.53-.6,2.23-5.28,2.01-6.49,1.05.4,2.18.62,3.28.89,3.82.96,7.35,1.37,11.68,1.07,1.27-.09,3.74-.85,4.14-2.19.37-1.25-.9-1.69-1.95-1.9-4.75-.98-14.85.53-16.07-5.91-1.09-5.76,2.99-10.3,8.59-11.36,6.46-1.22,13.26-.47,19.55,1.21Z"/>
  <path class="cls-1" d="M27.22,180.17l5.54-26.33.5-1.14c5.78.05,12.26-.58,18-.16,7.54.55,10.5,4.78,8.31,11.96-3,9.86-14.23,6.54-22.3,7.36l-1.66,8.31h-8.4ZM38.65,165.55h9.91c3.42,0,5.43-6.1.69-6.51-3.05-.27-6.5.23-9.59.01l-1.01,6.5Z"/>
  <path class="cls-1" d="M103.84,152.55l-1.01,6.5c-3.46.08-6.96-.25-10.37.37l-4.08,20.75h-8.4l4.37-21.12h-10.08c.37-2.12.56-4.64,1.51-6.5h28.06Z"/>
  <path class="cls-1" d="M27.56,152.55c.04.57,0,1.13-.09,1.7-.62,4.11-1.79,9.49-2.75,13.58-.73,3.11-1.8,7.58-4.38,9.74-4.42,3.69-12.63,3.94-18.06,2.24-.28-.09-1.21-1.3-2.28-.95l2.36-6.5c1.11.32,2.31.4,3.43.68.26.06.26.56.49.61,1.44.31,4.8.3,6.25,0,.15-.03,2.21-1.72,2.4-1.96.81-1.05,1.05-2.61,1.38-3.87,1.31-5.01,1.93-10.26,3.18-15.28h8.07Z"/>
  <polygon class="cls-1" points="115.6 152.55 110.23 180.17 101.82 180.17 107.54 152.55 115.6 152.55"/>
</svg>